<?xml version="1.0" standalone="no"?>
<!DOCTYPE svg PUBLIC "-//W3C//DTD SVG 1.1//EN" "http://www.w3.org/Graphics/SVG/1.1/DTD/svg11.dtd" >
<svg xmlns="http://www.w3.org/2000/svg">
<metadata>
This is a custom SVG webfont generated by Font Squirrel.
Copyright   : Copyright c 2011 by Admix Designs All rights reserved
Designer    : Joe Prince
Foundry     : Joe Prince
</metadata>
<defs>
<font id="VarelaRegular" horiz-adv-x="1286" >
<font-face units-per-em="2048" ascent="1638" descent="-410" />
<missing-glyph horiz-adv-x="532" />
<glyph unicode=" "  horiz-adv-x="532" />
<glyph unicode="&#x09;" horiz-adv-x="532" />
<glyph unicode="&#xa0;" horiz-adv-x="532" />
<glyph unicode="!" horiz-adv-x="575" d="M172 0v229h229v-229h-229zM182 1130v300h211v-300l-41 -735h-131z" />
<glyph unicode="&#x22;" horiz-adv-x="841" d="M113 1516h231l-63 -500h-107zM498 1516h231l-61 -500h-107z" />
<glyph unicode="#" horiz-adv-x="1253" d="M94 373v143h232l49 311h-209v144h231l60 370h145l-59 -370h260l59 370h146l-60 -370h209v-144h-231l-49 -311h208v-143h-231l-59 -373h-146l60 373h-260l-60 -373h-145l59 373h-209zM471 516h260l49 311h-260z" />
<glyph unicode="$" horiz-adv-x="1253" d="M111 1030q0 170 127 288t354 130v197h92v-195q205 -8 377 -74v-174h-14q-178 72 -363 78v-487q111 -27 177.5 -49.5t146 -68.5t118.5 -120t39 -176q0 -166 -131 -276.5t-350 -122.5v-195h-92v195q-254 10 -465 110v182h10q199 -111 455 -118v469q-88 23 -141.5 40 t-126 52t-113.5 73.5t-70.5 101t-29.5 140.5zM295 1044q0 -94 75.5 -143t221.5 -86v461q-133 -12 -215 -73t-82 -159zM684 156q297 20 297 235q0 82 -75 126t-222 83v-444z" />
<glyph unicode="%" horiz-adv-x="1667" d="M88 1097.5q0 159.5 86 263t243.5 103.5t244 -103.5t86.5 -263t-86.5 -263t-244 -103.5t-243.5 103.5t-86 263zM231 1097.5q0 -102.5 49.5 -168t137.5 -65.5t137 65.5t49 168t-49 168t-137 65.5t-137.5 -65.5t-49.5 -168zM303 -8l903 1444h160l-903 -1444h-160zM920 329.5 q0 159.5 86 263t243.5 103.5t243.5 -103.5t86 -263t-86 -263t-243.5 -103.5t-243.5 103.5t-86 263zM1063 329.5q0 -102.5 49 -168t137 -65.5t137.5 65.5t49.5 168t-49.5 168t-137.5 65.5t-137 -65.5t-49 -168z" />
<glyph unicode="&#x26;" horiz-adv-x="1499" d="M145 401q0 139 72 236.5t158 153.5v6q-61 74 -92 139t-31 156q0 150 104.5 254t278.5 104q145 0 289 -100v-176h-4q-125 117 -277 116q-102 0 -160.5 -56t-58.5 -132q0 -86 40 -143.5t165 -174.5l424 -399h6q47 72 78 147h184q-57 -158 -135 -262v-10l268 -254v-6h-240 l-143 135h-8q-182 -156 -416 -155q-252 0 -377 124.5t-125 296.5zM322 395q0 -113 89 -185.5t220 -72.5q176 0 311 111v8l-448 420h-11q-162 -109 -161 -281z" />
<glyph unicode="'" horiz-adv-x="487" d="M150 952v133q113 61 112 201h-112v230h229v-230q0 -238 -229 -334z" />
<glyph unicode="(" horiz-adv-x="638" d="M104 629q0 524 293 927h193v-6q-299 -397 -299 -921q0 -522 299 -920v-6h-193q-293 403 -293 926z" />
<glyph unicode=")" horiz-adv-x="638" d="M51 -291q299 397 299 920q0 524 -299 921v6h193q293 -403 293 -927q0 -522 -293 -926h-193v6z" />
<glyph unicode="*" horiz-adv-x="854" d="M117 1012l252 100l-252 98l69 121l211 -170l-39 269h138l-41 -269l213 170l69 -121l-252 -98l252 -100l-69 -119l-213 168l41 -268h-138l39 268l-211 -168z" />
<glyph unicode="+" horiz-adv-x="1150" d="M92 629v157h404v406h159v-406h404v-157h-404v-406h-159v406h-404z" />
<glyph unicode="," horiz-adv-x="532" d="M152 0v229h229v-229q0 -238 -229 -334v133q113 61 112 201h-112z" />
<glyph unicode="-" horiz-adv-x="835" d="M152 492v165h532v-165h-532z" />
<glyph unicode="." horiz-adv-x="532" d="M152 0v229h229v-229h-229z" />
<glyph unicode="/" horiz-adv-x="907" d="M74 -174l585 1712h177l-586 -1712h-176z" />
<glyph unicode="0" d="M88 715q0 338 142.5 536.5t412.5 198.5q268 0 411.5 -198.5t143.5 -536.5t-143.5 -536.5t-411.5 -198.5q-270 0 -412.5 198.5t-142.5 536.5zM274 715q0 -264 95.5 -413.5t273.5 -149.5t273.5 149.5t95.5 413.5q0 262 -95.5 411.5t-273.5 149.5t-273.5 -149.5 t-95.5 -411.5z" />
<glyph unicode="1" d="M287 0v174h319v1036h-8l-297 -147v199l320 168h172v-1256h280v-174h-786z" />
<glyph unicode="2" d="M133 0v106q0 100 60.5 193.5t151.5 161t197.5 139.5t197.5 131.5t151.5 135t60.5 153.5q0 254 -323 254q-248 0 -434 -123h-11v182q219 117 478 117q201 0 336 -116t135 -300q0 -100 -52.5 -193t-133.5 -162t-179 -139.5t-186 -124t-162 -115.5t-98 -118v-8h790v-174 h-979z" />
<glyph unicode="3" d="M150 72v182h10q180 -96 407 -96q72 0 135.5 10t121 34.5t90 72t32.5 110.5q0 258 -452 258h-107v172h82q205 0 315.5 62.5t110.5 185.5q0 98 -82 155.5t-242 57.5q-229 0 -399 -113h-8v172q205 115 424 115q236 0 364.5 -96.5t128.5 -272.5q0 -250 -243 -340v-2 q49 -12 95 -33.5t94 -62.5t77 -109.5t29 -158.5q0 -188 -148.5 -291.5t-382.5 -103.5q-248 0 -452 92z" />
<glyph unicode="4" d="M59 360v177l699 893h223v-904h229v-166h-229v-360h-186v360h-736zM262 526h533v688h-4l-529 -684v-4z" />
<glyph unicode="5" d="M139 680l117 750h827v-175h-671l-62 -430h6q150 80 336 80q225 0 351 -128t126 -334.5t-141 -334.5t-420 -128q-262 0 -456 133v198h8q186 -147 424 -147q195 0 297 65.5t102 223.5q0 127 -85 200.5t-232 73.5q-223 0 -365 -119z" />
<glyph unicode="6" d="M121 713q0 129 30.5 251.5t96 235.5t186.5 181.5t281 68.5q207 0 385 -100v-189h-10q-168 109 -361 109q-125 0 -213 -53.5t-131 -141.5t-62.5 -166t-23.5 -161h4q140 178 416 178q211 0 340 -131t129 -351q0 -199 -138.5 -331.5t-367.5 -132.5q-561 0 -561 733zM309 530 q56 -376 375 -376q141 0 229 86t88 209q0 139 -77.5 223t-227.5 84q-266 0 -387 -226z" />
<glyph unicode="7" d="M133 1251v179h1020v-166l-614 -1264h-213l620 1243v8h-813z" />
<glyph unicode="8" d="M96 379q0 283 305 385v2q-104 35 -170.5 113.5t-66.5 197.5q0 143 117.5 258t361.5 115t361.5 -115t117.5 -258q0 -119 -66.5 -197.5t-170.5 -113.5v-2q305 -102 305 -385q0 -74 -30 -140.5t-90 -127t-171 -96t-256 -35.5t-256 35.5t-171 96t-90 127t-30 140.5zM283 399 q0 -90 88 -173t272 -83t272.5 83t88.5 173q0 131 -104.5 204t-256 73t-256 -73t-104.5 -204zM350 1065q0 -86 71 -153.5t222.5 -67.5t222 67.5t70.5 153.5q0 96 -75 158.5t-218 62.5t-218 -62.5t-75 -158.5z" />
<glyph unicode="9" d="M98 985q0 199 138.5 332t367.5 133q561 0 561 -733q0 -129 -30.5 -252t-96 -235.5t-186.5 -181t-281 -68.5q-207 0 -385 100v188h11q168 -109 360 -108q125 0 213 53t131 141t62.5 166t23.5 162h-4q-140 -178 -416 -178q-211 0 -340 131t-129 350zM285 981 q0 -139 77.5 -223t227.5 -84q266 0 387 225q-56 377 -375 377q-141 0 -229 -86t-88 -209z" />
<glyph unicode=":" horiz-adv-x="532" d="M152 0v229h229v-229h-229zM152 815v229h229v-229h-229z" />
<glyph unicode=";" horiz-adv-x="532" d="M152 0v229h229v-229q0 -238 -229 -334v133q113 61 112 201h-112zM152 815v229h229v-229h-229z" />
<glyph unicode="&#x3c;" horiz-adv-x="1187" d="M84 524v164l965 438v-180l-752 -338v-4l752 -338v-180z" />
<glyph unicode="=" horiz-adv-x="1458" d="M160 369v159h1138v-159h-1138zM160 827v160h1138v-160h-1138z" />
<glyph unicode="&#x3e;" horiz-adv-x="1187" d="M139 86v180l752 338v4l-752 338v180l965 -438v-164z" />
<glyph unicode="?" horiz-adv-x="1017" d="M86 1155v186q195 109 379 109q209 0 335 -104.5t126 -282.5q0 -94 -40 -167t-96.5 -120t-112.5 -93t-96 -111.5t-40 -151.5v-25h-181v33q0 109 39 194t95.5 137t113 95t95 92t38.5 107q0 223 -292 223q-170 0 -355 -121h-8zM336 0v229h229v-229h-229z" />
<glyph unicode="@" horiz-adv-x="1839" d="M100 537q0 231 118 431.5t319 320.5t432 120q324 -2 552 -200.5t228 -508.5q0 -129 -36 -238.5t-125 -188t-220 -78.5q-102 0 -159.5 45t-69.5 106q-127 -154 -338 -153q-164 0 -256 100t-92 260q0 227 145 362.5t340 135.5q154 0 262 -105l17 88h153l-84 -479 q-14 -115 -14 -131q0 -57 25.5 -95t76.5 -38q127 0 195.5 110.5t68.5 299t-101 328.5t-250.5 205.5t-317.5 65.5q-309 0 -535.5 -226t-226.5 -537q0 -152 68.5 -286t211 -224t332.5 -90q252 0 496 126l-21 -122q-213 -111 -475 -111q-317 0 -518 209t-201 498zM610 573 q0 -119 65.5 -179t170.5 -60q250 0 299 287l33 190q-90 94 -232 94q-137 0 -236.5 -88t-99.5 -244z" />
<glyph unicode="A" horiz-adv-x="1427" d="M10 0l606 1430h195l606 -1430h-203l-153 367h-694l-154 -367h-203zM440 537h547v10l-270 653h-4l-273 -653v-10z" />
<glyph unicode="B" horiz-adv-x="1419" d="M199 0v1430h575q219 0 339 -100.5t120 -270.5q0 -225 -197 -314v-6q277 -88 277 -338q0 -401 -527 -401h-587zM385 174h383q199 0 282 61.5t83 174.5q0 233 -363 233h-385v-469zM385 811h340q182 0 256 61.5t74 171.5q0 96 -79 153.5t-216 57.5h-375v-444z" />
<glyph unicode="C" horiz-adv-x="1429" d="M115 715q0 336 201.5 535.5t514.5 199.5q264 0 486 -133v-184h-10q-211 139 -457 139q-262 0 -405.5 -155.5t-143.5 -401.5t143.5 -401.5t405.5 -155.5q246 0 457 139h10v-184q-221 -133 -486 -133q-313 0 -514.5 199.5t-201.5 535.5z" />
<glyph unicode="D" horiz-adv-x="1536" d="M199 0v1430h503q176 0 318.5 -62.5t228.5 -166t131 -228.5t45 -258q0 -104 -27.5 -205.5t-86 -194t-142.5 -163t-204.5 -111.5t-262.5 -41h-503zM385 174h295q254 0 407.5 149.5t153.5 391t-153.5 391t-407.5 149.5h-295v-1081z" />
<glyph unicode="E" horiz-adv-x="1306" d="M199 0v1430h991v-175h-805v-452h731v-174h-731v-455h805v-174h-991z" />
<glyph unicode="F" horiz-adv-x="1249" d="M199 0v1430h966v-175h-780v-452h709v-174h-709v-629h-186z" />
<glyph unicode="G" horiz-adv-x="1523" d="M113 713q0 328 204.5 532.5t507.5 204.5q272 0 531 -158v-192h-8q-252 170 -502 170q-240 0 -393.5 -147.5t-153.5 -409.5q0 -244 149.5 -400.5t407.5 -156.5q193 0 358 90v370h-374v168h538v-647q-262 -157 -543 -157h-4q-322 0 -520 204.5t-198 528.5z" />
<glyph unicode="H" horiz-adv-x="1546" d="M199 0v1430h186v-629h776v629h187v-1430h-187v627h-776v-627h-186z" />
<glyph unicode="I" horiz-adv-x="583" d="M199 0v1430h186v-1430h-186z" />
<glyph unicode="J" horiz-adv-x="954" d="M49 63v185h8q125 -92 273 -92q111 0 179.5 63.5t68.5 239.5v971h186v-959q0 -268 -120 -379.5t-302 -111.5q-156 0 -293 83z" />
<glyph unicode="K" horiz-adv-x="1372" d="M199 0v1430h186v-732h6l690 732h244l-584 -603l637 -827h-227l-528 696h-11l-227 -235v-461h-186z" />
<glyph unicode="L" horiz-adv-x="1179" d="M199 0v1430h186v-1244h754v-186h-940z" />
<glyph unicode="M" horiz-adv-x="1978" d="M199 0v1430h290l498 -1223h4l498 1223h291v-1430h-187v1233h-4l-504 -1233h-192l-506 1233h-2v-1233h-186z" />
<glyph unicode="N" horiz-adv-x="1644" d="M199 0v1430h229l825 -1176h7v1176h186v-1430h-229l-828 1178h-4v-1178h-186z" />
<glyph unicode="O" horiz-adv-x="1660" d="M113 715q6 326 200.5 530.5t518 204.5t518 -205t200.5 -530q-6 -326 -200.5 -530.5t-518 -204.5t-518 204.5t-200.5 530.5zM299 714.5q0 -243.5 142 -402t390 -158.5q246 0 389.5 158.5t143.5 402t-143.5 402.5t-389.5 159q-248 0 -390 -159t-142 -402.5z" />
<glyph unicode="P" horiz-adv-x="1370" d="M199 0v1430h559q147 0 257.5 -40t171 -108t89.5 -144.5t29 -162.5t-29 -163t-89.5 -144.5t-171 -107.5t-257.5 -40h-373v-520h-186zM385 696h354q209 0 294 80t85 199t-85 198.5t-294 79.5h-354v-557z" />
<glyph unicode="Q" horiz-adv-x="1662" d="M113 715q6 326 200.5 530.5t518 204.5t518 -205t200.5 -530q-4 -240 -115.5 -419t-304.5 -259v-6l279 -312v-6h-229l-226 275q-51 -8 -123 -8q-324 0 -518 204.5t-200 530.5zM299 714.5q0 -243.5 142 -402t390 -158.5q246 0 389.5 158.5t143.5 402t-143.5 402.5 t-389.5 159q-248 0 -390 -159t-142 -402.5z" />
<glyph unicode="R" horiz-adv-x="1458" d="M199 0v1430h569q279 0 418 -115t139 -301q0 -125 -67.5 -224.5t-196.5 -144.5v-4q242 -64 242 -465v-49q0 -66 34 -119v-8h-192q-29 47 -29 111v32q0 51 -2 80t-9 86.5t-26.5 93t-51.5 75.5t-88 59.5t-130 19.5h-424v-557h-186zM385 733h371q176 0 279.5 69.5 t103.5 196.5q0 123 -89 188.5t-305 65.5h-360v-520z" />
<glyph unicode="S" horiz-adv-x="1261" d="M119 1030q0 178 140 299t390 121q227 0 420 -74v-174h-14q-193 78 -385 78q-162 0 -264.5 -62.5t-102.5 -173.5q0 -82 64.5 -135t161 -74.5t210 -53t209.5 -68.5t161 -122t65 -212q0 -176 -144.5 -287.5t-380.5 -111.5q-281 0 -514 110v182h10q211 -118 481 -118h5 q358 0 358 237q0 61 -48 104.5t-125 68t-169 47t-185 53t-170 72.5t-125 117t-48 177z" />
<glyph unicode="T" horiz-adv-x="1251" d="M39 1255v175h1173v-175h-493v-1255h-187v1255h-493z" />
<glyph unicode="U" horiz-adv-x="1552" d="M188 537v893h187v-900q0 -180 118.5 -280t282.5 -100t283 100t119 280v900h186v-893q0 -139 -52 -249t-139.5 -175.5t-188.5 -99t-207.5 -33.5t-208 33.5t-188.5 99t-139.5 175t-52.5 249.5z" />
<glyph unicode="V" horiz-adv-x="1421" d="M10 1430h203l494 -1240h8l495 1240h201l-590 -1430h-221z" />
<glyph unicode="W" horiz-adv-x="2062" d="M25 1430h194l361 -1180h6l364 1180h162l365 -1180h6l360 1180h195l-467 -1430h-187l-348 1110h-10l-348 -1110h-186z" />
<glyph unicode="X" horiz-adv-x="1370" d="M31 0l549 715l-549 715h233l420 -570h10l418 570h225l-546 -713l552 -717h-231l-428 573h-10l-422 -573h-221z" />
<glyph unicode="Y" horiz-adv-x="1320" d="M-14 1430h227l442 -654h11l442 654h227l-581 -826v-604h-187v604z" />
<glyph unicode="Z" horiz-adv-x="1306" d="M96 0v164l873 1079v8h-856v179h1089v-168l-872 -1082v-6h872v-174h-1106z" />
<glyph unicode="[" horiz-adv-x="659" d="M178 -270v1769h412v-147h-250v-1477h250v-145h-412z" />
<glyph unicode="\" horiz-adv-x="907" d="M72 1538h176l586 -1712h-177z" />
<glyph unicode="]" horiz-adv-x="659" d="M70 -125h249v1477h-249v147h411v-1769h-411v145z" />
<glyph unicode="^" horiz-adv-x="1073" d="M133 872l301 558h205l301 -558h-166l-237 379h-5l-235 -379h-164z" />
<glyph unicode="_" horiz-adv-x="1357" d="M117 -166h1124v-135h-1124v135z" />
<glyph unicode="`" horiz-adv-x="503" d="M72 1456h202l156 -272h-127z" />
<glyph unicode="a" horiz-adv-x="1136" d="M78 287q0 152 119.5 241.5t351.5 89.5h248v17q0 135 -66.5 194.5t-208.5 59.5q-186 0 -329 -70h-13v168q178 78 375 78q211 0 319.5 -119t108.5 -284v-662h-164l-22 131h-6q-146 -151 -376 -151h-3q-139 0 -236.5 83.5t-97.5 223.5zM264 307q0 -164 217 -164 q90 0 174.5 44t141.5 110v172h-224q-309 0 -309 -162z" />
<glyph unicode="b" horiz-adv-x="1292" d="M162 0v1495h186v-582h6q146 152 344.5 152t347 -147.5t148.5 -395.5t-148.5 -395t-347 -147t-344.5 151h-6l-22 -131h-164zM348 307q140 -153 324 -153q152 0 244 96t92 272t-92.5 272.5t-243.5 96.5q-184 0 -324 -154v-430z" />
<glyph unicode="c" horiz-adv-x="1097" d="M94 522q0 248 160 395.5t387 147.5q184 0 354 -100v-177h-8q-152 103 -330 103q-176 0 -276 -101.5t-100 -267.5t100 -267t276 -101q178 0 330 102h8v-176q-170 -100 -354 -100q-227 0 -387 147t-160 395z" />
<glyph unicode="d" horiz-adv-x="1292" d="M98 522q0 248 148.5 395.5t347.5 147.5t344 -152h6v582h186v-1495h-163l-23 131h-6q-145 -152 -343 -152l-1 1q-199 0 -347.5 147t-148.5 395zM285 522q0 -176 92 -272t244 -96q184 0 323 153v430q-139 154 -323 154q-152 0 -244 -96.5t-92 -272.5z" />
<glyph unicode="e" horiz-adv-x="1167" d="M100 522q0 227 125 385t364.5 158t364.5 -158t125 -385v-65h-790q16 -143 106 -223t252 -80q205 0 361 102h10v-180q-172 -96 -387 -96q-250 0 -390.5 142t-140.5 400zM289 608h604q-8 147 -99.5 223t-204 76t-202.5 -76t-98 -223z" />
<glyph unicode="f" horiz-adv-x="778" d="M49 885v159h191v119q0 178 91 265.5t216 87.5q106 0 198 -52v-153h-14q-76 26 -137 26q-84 0 -126 -38.5t-42 -141.5v-113h319v-159h-319v-885h-186v885h-191z" />
<glyph unicode="g" horiz-adv-x="1292" d="M98 532.5q0 251.5 152.5 392t343.5 140.5q203 0 344 -152h6l23 131h163v-999q0 -258 -124.5 -397.5t-356.5 -139.5q-242 0 -436 105v184h10q172 -112 404 -112h4q313 0 313 333v134h-6q-141 -152 -344 -152q-190 0 -343 140.5t-153 392zM285 532.5q0 -176.5 97 -269.5 t251 -93q164 0 311 152v421q-147 152 -311 152q-154 0 -251 -93t-97 -269.5z" />
<glyph unicode="h" horiz-adv-x="1247" d="M162 0v1495h186v-612h6q166 182 375 182q170 0 268.5 -114.5t98.5 -286.5v-664h-187v643q0 250 -225 250q-178 0 -336 -197v-696h-186z" />
<glyph unicode="i" horiz-adv-x="526" d="M164 1266v200h201v-200h-201zM170 0v1044h186v-1044h-186z" />
<glyph unicode="j" horiz-adv-x="526" d="M-66 -311h17q49 -16 94 -17q63 0 94 22.5t31 98.5v1251h186v-1255q0 -127 -64.5 -204t-203.5 -77q-88 0 -154 27v154zM164 1266v200h201v-200h-201z" />
<glyph unicode="k" horiz-adv-x="1118" d="M162 0v1495h186v-915h6l453 464h250l-424 -419l471 -625h-230l-368 494h-6l-152 -152v-342h-186z" />
<glyph unicode="l" horiz-adv-x="542" d="M178 0v1495h187v-1495h-187z" />
<glyph unicode="m" horiz-adv-x="1882" d="M162 0v1044h164l22 -131v-30h4q131 182 344 182q115 0 196 -59.5t116 -147.5h6q124 207 372 207q168 0 255.5 -119t87.5 -274v-672h-187v635q0 133 -48 195.5t-161 62.5q-176 0 -295 -197v-696h-186v635q0 133 -47 195.5t-162 62.5q-176 0 -295 -197v-696h-186z" />
<glyph unicode="n" horiz-adv-x="1247" d="M162 0v1044h164l22 -131v-30h4q166 182 377 182q170 0 268.5 -114.5t98.5 -286.5v-664h-187v643q0 250 -225 250q-178 0 -336 -197v-696h-186z" />
<glyph unicode="o" horiz-adv-x="1245" d="M98 522.5q0 243.5 143.5 393t381.5 149.5q236 0 380 -149.5t144 -393t-144.5 -393t-379.5 -149.5q-238 0 -381.5 149.5t-143.5 393zM285 524q0 -188 101 -281t236.5 -93t237 93t101.5 281q0 186 -101.5 278.5t-237 92.5t-236.5 -92t-101 -279z" />
<glyph unicode="p" horiz-adv-x="1292" d="M162 -471v1515h164l22 -131h6q145 152 344 152t347.5 -147.5t148.5 -395.5t-148.5 -395t-347 -147t-344.5 151h-6v-602h-186zM348 307q138 -153 322 -153h2q152 0 244 96t92 272t-92 272.5t-244 96.5q-184 0 -324 -154v-430z" />
<glyph unicode="q" horiz-adv-x="1292" d="M98 522q0 248 148.5 395.5t347.5 147.5t344 -152h6l23 131h163v-1515h-186v602h-6q-145 -151 -344 -151t-347.5 147t-148.5 395zM285 522q0 -176 92 -272t244 -96q184 0 323 153v430q-139 154 -323 154q-152 0 -244 -96.5t-92 -272.5z" />
<glyph unicode="r" horiz-adv-x="792" d="M162 0v1044h164l22 -131v-30h4q147 182 385 182h17v-178h-17q-121 0 -225 -47t-164 -131v-709h-186z" />
<glyph unicode="s" horiz-adv-x="983" d="M106 741q0 143 103.5 233.5t296.5 90.5q164 0 317 -57v-170h-14q-137 57 -289 57q-111 0 -173 -40t-62 -103q0 -57 63.5 -90t154.5 -52.5t181 -48.5t153.5 -98.5t63.5 -179.5q0 -131 -103.5 -217t-291.5 -86q-219 0 -387 92v178h10q166 -98 365 -98q227 0 227 145 q0 47 -63.5 76.5t-153.5 50t-180.5 49.5t-154 96.5t-63.5 171.5z" />
<glyph unicode="t" horiz-adv-x="786" d="M35 885v12l381 373v-226h297v-159h-297v-619q0 -43 12 -69.5t35.5 -36.5t41 -13.5t44.5 -3.5q76 0 149 33h15v-151q-86 -45 -185 -45q-299 0 -299 270v635h-194z" />
<glyph unicode="u" horiz-adv-x="1249" d="M154 381v663h186v-643q0 -249 223 -249h2q178 0 336 196v696h186v-1044h-163l-23 131v31h-4q-166 -182 -377 -182q-170 0 -268 114.5t-98 286.5z" />
<glyph unicode="v" horiz-adv-x="1085" d="M12 1044h203l324 -823h8l323 823h203l-438 -1044h-184z" />
<glyph unicode="w" horiz-adv-x="1607" d="M23 1044h196l248 -819h6l254 819h154l254 -819h6l248 819h196l-358 -1044h-183l-237 748h-6l-238 -748h-182z" />
<glyph unicode="x" horiz-adv-x="1110" d="M43 0l401 516l-401 528h233l277 -372h10l271 372h233l-403 -516l403 -528h-233l-281 371h-10l-267 -371h-233z" />
<glyph unicode="y" horiz-adv-x="1091" d="M10 1044h201l328 -825h8l336 825h200l-628 -1515h-189l176 455z" />
<glyph unicode="z" horiz-adv-x="1021" d="M94 0v172l600 690v8h-581v174h805v-174l-592 -690v-6h592v-174h-824z" />
<glyph unicode="{" horiz-adv-x="704" d="M29 553v152q82 8 132 24t71.5 43t26.5 48.5t5 56.5v432q0 139 75 192t212 53h86v-143h-92q-53 0 -82 -15.5t-34 -30.5t-5 -40v-455q0 -174 -184 -241v-2q184 -68 184 -240v-455q0 -25 5 -40t34 -30.5t82 -15.5h92v-143h-86q-137 0 -212 53.5t-75 192.5v432q0 35 -5 56.5 t-26.5 48t-71.5 43t-132 24.5z" />
<glyph unicode="|" horiz-adv-x="518" d="M176 -391v1898h166v-1898h-166z" />
<glyph unicode="}" horiz-adv-x="704" d="M68 -154h92q53 0 81.5 15.5t34 31t5.5 39.5v455q0 172 184 240v2q-184 67 -184 241v455q0 25 -5.5 40t-34 30.5t-81.5 15.5h-92v143h86q137 0 211.5 -53t74.5 -192v-432q0 -35 5.5 -56.5t27 -48.5t71.5 -43t132 -24v-152q-82 -8 -132 -24.5t-71.5 -43t-27 -48t-5.5 -56.5 v-432q0 -139 -74.5 -192.5t-211.5 -53.5h-86v143z" />
<glyph unicode="~" horiz-adv-x="1306" d="M145 440q16 152 89 232t178 80q94 0 188 -39t176 -78t142 -39q120 0 149 139h102q-18 -154 -89.5 -233.5t-178.5 -79.5q-92 0 -186 39t-175 78t-143 39q-121 0 -149 -138h-103z" />
<glyph unicode="&#xa2;" horiz-adv-x="1128" d="M90 522q0 248 160 395.5t387 147.5q41 0 106 -8l70 203h121l-78 -232q61 -20 135 -63v-177h-8q-92 59 -182 82l-242 -708q39 -8 94 -8q178 0 330 102h8v-176q-170 -100 -354 -100q-76 0 -135 14l-82 -236h-121l94 273q-137 63 -220 190t-83 301zM276 522q1 -229 175 -323 l235 690q-6 0 -16.5 1t-16.5 1q-176 0 -276.5 -101.5t-100.5 -267.5z" />
<glyph unicode="&#xa3;" horiz-adv-x="1236" d="M90 629v92h232q-4 12 -14.5 45t-15.5 49t-13.5 47t-12.5 53.5t-7 53t-3 59.5q0 197 136 309.5t362 112.5q180 0 336 -78v-184h-11q-145 82 -317 82q-174 0 -247 -67.5t-73 -166.5q0 -37 8.5 -82t15.5 -73.5t24.5 -84t23.5 -75.5h399v-92h-378q8 -41 8 -94 q0 -158 -86 -293q8 0 24.5 1t26.5 1q82 0 207 -42t196 -42q111 -1 211 67h8v-182q-123 -66 -237 -65q-86 0 -203 46t-205 46q-141 0 -252 -92l-112 94q238 215 237 448q0 55 -12 107h-256z" />
<glyph unicode="&#xa5;" horiz-adv-x="1347" d="M76 1430h227l371 -650l370 650h228l-418 -682h264v-154h-352v-186h352v-154h-352v-254h-184v254h-355v154h355v186h-355v154h267z" />
<glyph unicode="&#xa9;" horiz-adv-x="1677" d="M104 715q0 305 216.5 520t519.5 215t519 -215t216 -520t-216 -520t-519 -215t-519.5 215t-216.5 520zM211 717q0 -260 184.5 -445.5t442.5 -185.5q260 0 445 184.5t185 446.5q0 258 -185 442t-445 184q-258 0 -442.5 -184t-184.5 -442zM457 714.5q0 188.5 109.5 303.5 t285.5 115q141 0 238.5 -75t132.5 -208h-138q-63 158 -233 158q-123 0 -190.5 -84t-67.5 -209t67.5 -209t190.5 -84q170 0 233 158h138q-35 -131 -133.5 -207t-237.5 -76q-176 0 -285.5 114.5t-109.5 303z" />
<glyph unicode="&#xad;" horiz-adv-x="835" d="M152 492v165h532v-165h-532z" />
<glyph unicode="&#xae;" horiz-adv-x="1677" d="M104 715q0 305 216.5 520t519.5 215t519 -215t216 -520t-216 -520t-519 -215t-519.5 215t-216.5 520zM211 717q0 -260 184.5 -445.5t442.5 -185.5q260 0 445 184.5t185 446.5q0 258 -185 442t-445 184q-258 0 -442.5 -184t-184.5 -442zM535 307v815h327q162 0 242 -67.5 t80 -177.5q0 -139 -150 -197v-2q57 -20 98.5 -83t41.5 -173v-29q0 -35 24 -78v-8h-137q-27 39 -27 80v16q0 33 -1 50.5t-8 52.5t-21.5 54.5t-45 35.5t-73.5 16h-213v-305h-137zM672 733h184q88 0 140.5 36t52.5 103q0 131 -197 132h-180v-271z" />
<glyph unicode="&#xb4;" horiz-adv-x="491" d="M72 1184l155 272h203l-231 -272h-127z" />
<glyph unicode="&#x2000;" horiz-adv-x="822" />
<glyph unicode="&#x2001;" horiz-adv-x="1645" />
<glyph unicode="&#x2002;" horiz-adv-x="822" />
<glyph unicode="&#x2003;" horiz-adv-x="1645" />
<glyph unicode="&#x2004;" horiz-adv-x="548" />
<glyph unicode="&#x2005;" horiz-adv-x="411" />
<glyph unicode="&#x2006;" horiz-adv-x="274" />
<glyph unicode="&#x2007;" horiz-adv-x="274" />
<glyph unicode="&#x2008;" horiz-adv-x="205" />
<glyph unicode="&#x2009;" horiz-adv-x="329" />
<glyph unicode="&#x200a;" horiz-adv-x="91" />
<glyph unicode="&#x2010;" horiz-adv-x="835" d="M152 492v165h532v-165h-532z" />
<glyph unicode="&#x2011;" horiz-adv-x="835" d="M152 492v165h532v-165h-532z" />
<glyph unicode="&#x2012;" horiz-adv-x="835" d="M152 492v165h532v-165h-532z" />
<glyph unicode="&#x2013;" horiz-adv-x="1400" d="M152 492v165h1097v-165h-1097z" />
<glyph unicode="&#x2014;" horiz-adv-x="1824" d="M152 492v165h1521v-165h-1521z" />
<glyph unicode="&#x2018;" horiz-adv-x="522" d="M145 952v230q0 238 230 334v-134q-113 -61 -113 -200h113v-230h-230z" />
<glyph unicode="&#x2019;" horiz-adv-x="487" d="M150 952v133q113 61 112 201h-112v230h229v-230q0 -238 -229 -334z" />
<glyph unicode="&#x201c;" horiz-adv-x="894" d="M145 952v230q0 238 230 334v-134q-113 -61 -113 -200h113v-230h-230zM518 952v230q0 238 230 334v-134q-113 -61 -113 -200h113v-230h-230z" />
<glyph unicode="&#x201d;" horiz-adv-x="860" d="M150 952v133q113 61 112 201h-112v230h229v-230q0 -238 -229 -334zM522 952v133q113 61 113 201h-113v230h230v-230q0 -238 -230 -334z" />
<glyph unicode="&#x2022;" horiz-adv-x="772" d="M115 805q0 113 79.5 192.5t192.5 79.5t191.5 -79.5t78.5 -192.5t-78.5 -193t-191.5 -80t-192.5 80t-79.5 193z" />
<glyph unicode="&#x2026;" horiz-adv-x="1982" d="M152 0v229h229v-229h-229zM877 0v229h229v-229h-229zM1602 0v229h229v-229h-229z" />
<glyph unicode="&#x202f;" horiz-adv-x="329" />
<glyph unicode="&#x205f;" horiz-adv-x="411" />
<glyph unicode="&#x20ac;" horiz-adv-x="1396" d="M96 469v149h176q-8 61 -8 97q0 31 8 96h-176v147h209q70 221 243 356.5t410 135.5q184 0 338 -86l-47 -156q-127 66 -291 66q-152 0 -275.5 -85t-182.5 -231h676l-43 -147h-676q-6 -45 -6 -96t6 -97h618l-43 -149h-532q59 -143 183 -228t275 -85q160 0 291 63l47 -153 q-154 -86 -338 -86q-238 0 -410.5 135t-242.5 354h-209z" />
<glyph unicode="&#x2122;" horiz-adv-x="1951" d="M127 1311v119h639v-119h-256v-652h-129v652h-254zM889 659v771h178l258 -621h4l258 621h178v-771h-131v586h-2l-246 -586h-116l-248 586h-2v-586h-131z" />
<glyph unicode="&#xe000;" horiz-adv-x="1045" d="M0 1045h1045v-1045h-1045v1045z" />
</font>
</defs>
</svg>
