<?xml version="1.0" encoding="UTF-8"?>
<svg width="569px" height="166px" viewBox="0 0 569 166" version="1.1" xmlns="http://www.w3.org/2000/svg" xmlns:xlink="http://www.w3.org/1999/xlink">
    <!-- Generator: Sketch 50.2 (55047) - http://www.bohemiancoding.com/sketch -->
    <title>gooddata</title>
    <desc>Created with Sketch.</desc>
    <defs></defs>
    <g id="Page-1" stroke="none" stroke-width="1" fill="none" fill-rule="evenodd">
        <g id="gooddata" fill-rule="nonzero">
            <g id="Group">
                <path d="M100.9,131.5 L100.9,131.6 L100.9,131.8 C100.9,131.7 100.9,131.6 100.9,131.5" id="Shape" fill="#4E4D4D"></path>
                <path d="M108.4,82.9 L82.8,82.9 C82.8,91.7 84.2,100.1 86.8,108 C98.9,106 108.2,95.6 108.4,82.9" id="Shape" fill="#6A6A6A"></path>
                <path d="M165,87.2 C163.4,115.8 147.3,140.5 124,154 C136.2,161 150.4,165.1 165,165.1 L165,87.2 Z" id="Shape" fill="#6A6A6A"></path>
                <path d="M57,82.9 L0.3,82.9 C0.4,105.6 9.5,126.2 24.4,141.1 L64.5,101 C59.9,96.3 57.1,89.9 57,82.9" id="Shape" fill="#8B8B8A"></path>
                <path d="M82.7,108.4 C75.7,108.4 69.2,105.5 64.6,101 L24.5,141.1 C39.4,155.9 60,165.2 82.7,165.2 C82.8,165.2 82.6,165.2 82.7,165.2 L82.7,108.4 C82.6,108.4 82.8,108.4 82.7,108.4" id="Shape" fill="#3C3C3B"></path>
                <path d="M83,56.7 C83.1,56.7 83,56.7 83,56.7 L83,0 C82.9,0 83.1,0 83,0 C60.1,0 39.2,9.3 24.2,24.4 L64.2,64.6 C69,59.8 75.8,56.7 83,56.7" id="Shape" fill="#292627"></path>
                <path d="M57,82.5 C57,75.6 59.8,69.2 64.3,64.5 L24.2,24.3 C9.4,39.2 0.2,59.8 0.2,82.5 C0.2,82.6 0.2,82.7 0.2,82.9 L57,82.9 C57,82.8 57,82.7 57,82.5" id="Shape" fill="#575756"></path>
                <path d="M100.9,64.3 L141,24.2 C126.2,9.3 105.7,0.1 83.1,0 L83.1,56.7 C90,56.8 96.3,59.7 100.9,64.3" id="Shape" fill="#7C7B7B"></path>
                <path d="M86.7,108 C85.4,108.2 84,108.3 82.6,108.3 L82.6,165 C97.6,165 111.8,160.9 123.9,153.9 C117.6,150.3 111.9,145.9 106.8,140.9 C97.7,131.8 90.8,120.6 86.7,108" id="Shape" fill="#6F6F6E"></path>
                <path d="M165,87.2 L165,82.9 L108.4,82.9 C108.2,95.6 98.9,106.1 86.8,108 C90.8,120.5 97.8,131.8 106.9,140.9 C112,145.9 117.7,150.3 124,153.9 C147.3,140.4 163.4,115.7 165,87.2" id="Shape" fill="#292627"></path>
            </g>
            <g id="Group" transform="translate(215.000000, 54.000000)" fill="#000000">
                <g id="Shape">
                    <path d="M53.2,27.9 L53.2,56.2 C47.6,59.6 38.4,61.5 31.5,61.5 C12,61.5 0.8,47.6 0.8,31.3 C0.8,14.3 13.2,1.1 30.7,1.1 C41.2,1.1 47.6,3.9 52.1,8.6 L46.6,14.5 C41.9,10 36.5,8.4 30.7,8.4 C17.6,8.4 9.1,18.7 9.1,31.3 C9.1,44.3 18.8,54.2 31.4,54.2 C36.8,54.2 42,53.2 45.5,51.2 L45.5,35.2 L32.8,35.2 L32.8,27.9 L53.2,27.9 Z"></path>
                    <path d="M31.5,62.1 C13,62.1 0.1,49.4 0.1,31.3 C0.1,13.8 13.2,0.5 30.6,0.5 C40.5,0.5 47.4,2.9 52.5,8.2 L52.9,8.6 L46.6,15.4 L46.1,15 C42,11 36.9,9.1 30.6,9.1 C18.4,9.1 9.6,18.5 9.6,31.3 C9.6,44 18.9,53.5 31.3,53.5 C36.6,53.5 41.4,52.5 44.8,50.8 L44.8,35.8 L32.1,35.8 L32.1,27.2 L53.9,27.2 L53.9,56.5 L53.6,56.7 C47.5,60.4 37.9,62.1 31.5,62.1 Z M30.7,1.8 C13.7,1.8 1.4,14.2 1.4,31.3 C1.4,48.7 13.8,60.8 31.5,60.8 C37.6,60.8 46.7,59.2 52.6,55.8 L52.6,28.5 L33.3,28.5 L33.3,34.5 L46,34.5 L46,51.5 L45.7,51.7 C42.2,53.7 36.9,54.8 31.3,54.8 C18.2,54.8 8.4,44.7 8.4,31.3 C8.4,17.7 17.8,7.8 30.7,7.8 C37.1,7.8 42.3,9.7 46.6,13.6 L51.3,8.6 C46.5,4 39.9,1.8 30.7,1.8 Z"></path>
                </g>
                <g transform="translate(58.000000, 20.000000)" id="Shape">
                    <path d="M21.6,0.6 C33,0.6 42,9.6 42,20.8 C42,32 33,41 21.6,41 C10.2,41 1.2,32 1.2,20.8 C1.2,9.6 10.2,0.6 21.6,0.6 Z M21.6,34.2 C29.4,34.2 34.2,28.6 34.2,20.8 C34.2,13 29.3,7.4 21.6,7.4 C13.8,7.4 9,13 9,20.8 C9,28.6 13.8,34.2 21.6,34.2 Z"></path>
                    <path d="M21.6,41.6 C9.8,41.6 0.6,32.5 0.6,20.8 C0.6,9.1 9.8,0 21.6,0 C33.4,0 42.6,9.1 42.6,20.8 C42.7,32.5 33.4,41.6 21.6,41.6 Z M21.6,1.2 C10.5,1.2 1.8,9.8 1.8,20.8 C1.8,31.8 10.5,40.4 21.6,40.4 C32.7,40.4 41.4,31.8 41.4,20.8 C41.4,9.8 32.7,1.2 21.6,1.2 Z M21.6,34.8 C13.7,34.8 8.3,29.2 8.3,20.8 C8.3,12.4 13.6,6.8 21.6,6.8 C29.5,6.8 34.9,12.4 34.9,20.8 C34.9,29.2 29.5,34.8 21.6,34.8 Z M21.6,8 C14.4,8 9.6,13.1 9.6,20.7 C9.6,28.3 14.4,33.4 21.6,33.4 C28.8,33.4 33.6,28.3 33.6,20.7 C33.6,13.2 28.8,8 21.6,8 Z"></path>
                </g>
                <g transform="translate(103.000000, 20.000000)" id="Shape">
                    <path d="M21.6,0.6 C33,0.6 42,9.6 42,20.8 C42,32 33,41 21.6,41 C10.2,41 1.2,32 1.2,20.8 C1.2,9.6 10.2,0.6 21.6,0.6 Z M21.6,34.2 C29.4,34.2 34.2,28.6 34.2,20.8 C34.2,13 29.3,7.4 21.6,7.4 C13.8,7.4 9,13 9,20.8 C9,28.6 13.8,34.2 21.6,34.2 Z"></path>
                    <path d="M21.6,41.6 C9.8,41.6 0.5,32.5 0.5,20.8 C0.5,9.1 9.7,0 21.6,0 C33.4,0 42.7,9.1 42.7,20.8 C42.7,32.5 33.4,41.6 21.6,41.6 Z M21.6,1.2 C10.5,1.2 1.8,9.8 1.8,20.8 C1.8,31.8 10.5,40.4 21.6,40.4 C32.7,40.4 41.4,31.8 41.4,20.8 C41.4,9.8 32.7,1.2 21.6,1.2 Z M21.6,34.8 C13.7,34.8 8.3,29.2 8.3,20.8 C8.3,12.4 13.6,6.8 21.6,6.8 C29.5,6.8 34.9,12.4 34.9,20.8 C34.9,29.2 29.6,34.8 21.6,34.8 Z M21.6,8 C14.4,8 9.6,13.1 9.6,20.7 C9.6,28.3 14.4,33.4 21.6,33.4 C28.8,33.4 33.6,28.3 33.6,20.7 C33.6,13.2 28.8,8 21.6,8 Z"></path>
                </g>
                <g transform="translate(148.000000, 1.000000)" id="Shape">
                    <path d="M41.7,59 L34.4,59 L34.4,53.5 L34.2,53.5 C31.4,57.6 26,60 20.8,60 C8.9,60 1.3,51.2 1.3,39.8 C1.3,28.3 9,19.6 20.8,19.6 C26.3,19.6 31.6,22.1 34.2,26.1 L34.4,26.1 L34.4,0.7 L41.7,0.7 L41.7,59 Z M34.4,39.8 C34.4,32 29.5,26.4 21.8,26.4 C14,26.4 9.2,32 9.2,39.8 C9.2,47.6 14.1,53.2 21.8,53.2 C29.6,53.2 34.4,47.6 34.4,39.8 Z"></path>
                    <path d="M20.9,60.6 C9.1,60.6 0.7,52 0.7,39.8 C0.7,27.5 9,19 20.9,19 C26,19 30.9,21.1 33.8,24.5 L33.8,0 L42.4,0 L42.4,59.6 L33.8,59.6 L33.8,55.1 C30.8,58.5 25.9,60.6 20.9,60.6 Z M20.9,20.2 C9.8,20.2 2,28.2 2,39.8 C2,51.3 9.8,59.4 20.9,59.4 C26.1,59.4 31.2,57 33.8,53.2 L34,52.9 L34.9,52.9 L35,53.5 L35,58.4 L41.1,58.4 L41.1,1.3 L35,1.3 L35,26.7 L34,26.7 L33.7,26.4 C31.3,22.7 26.2,20.2 20.9,20.2 Z M21.8,53.8 C13.9,53.8 8.5,48.2 8.5,39.8 C8.5,31.4 13.8,25.8 21.8,25.8 C29.7,25.8 35.1,31.4 35.1,39.8 C35.1,48.2 29.7,53.8 21.8,53.8 Z M21.8,27 C14.6,27 9.8,32.1 9.8,39.7 C9.8,47.3 14.6,52.4 21.8,52.4 C29,52.4 33.8,47.3 33.8,39.7 C33.8,32.2 29,27 21.8,27 Z"></path>
                </g>
                <g transform="translate(198.000000, 1.000000)" id="Shape">
                    <path d="M1.4,1.2 L18.9,1.2 C43.1,1.2 49.1,19.7 49.1,30.3 C49.1,45 38.2,59 17.6,59 L1.4,59 L1.4,1.2 Z M9.2,51.7 L16.5,51.7 C29.6,51.7 40.8,44.5 40.8,30.3 C40.8,23 37,8.5 18.4,8.5 L9.3,8.5 L9.3,51.7 L9.2,51.7 Z"></path>
                    <path d="M17.6,59.6 L0.8,59.6 L0.8,0.5 L18.9,0.5 C43.2,0.5 49.7,19.2 49.7,30.2 C49.7,44.9 38.7,59.6 17.6,59.6 Z M2,58.4 L17.6,58.4 C38.8,58.4 48.4,43.8 48.4,30.3 C48.4,27.4 47.6,1.8 18.9,1.8 L2,1.8 L2,58.4 Z M16.5,52.3 L8.6,52.3 L8.6,7.8 L18.4,7.8 C40.8,7.8 41.5,28 41.5,30.3 C41.4,45.5 28.9,52.3 16.5,52.3 Z M9.8,51.1 L16.5,51.1 C27.4,51.1 40.2,45.7 40.2,30.3 C40.2,28.1 39.6,9.1 18.4,9.1 L9.9,9.1 L9.9,51.1 L9.8,51.1 Z"></path>
                </g>
                <g transform="translate(250.000000, 19.000000)" id="Shape">
                    <path d="M2.8,7.3 C6.9,3.5 12.7,1.6 18,1.6 C29.3,1.6 34.1,7.8 34.1,14.4 L34.1,34 C34.1,36.7 34.2,38.9 34.4,41 L27.9,41 C27.7,39.1 27.7,37.1 27.7,35.2 L27.5,35.2 C24.3,40.1 19.9,42 14,42 C6.9,42 0.7,38 0.7,30.5 C0.7,20.6 10.2,17.2 21.9,17.2 L27.2,17.2 L27.2,15.6 C27.2,11.6 24.3,7.5 18,7.5 C12.4,7.5 9.7,9.9 7.1,11.9 L2.8,7.3 Z M23.4,22.5 C16.5,22.5 8.1,23.7 8.1,29.9 C8.1,34.3 11.3,36.1 16.4,36.1 C24.5,36.1 27.3,30.1 27.3,24.9 L27.3,22.5 L23.4,22.5 Z"></path>
                    <path d="M14.1,42.6 C5.9,42.6 0.2,37.6 0.2,30.5 C0.2,21.5 7.9,16.6 22,16.6 L26.7,16.6 L26.7,15.6 C26.7,12 24,8.1 18.2,8.1 C13.2,8.1 10.6,10 8.2,11.9 L7.2,12.6 L2,7.2 L2.5,6.8 C6.4,3.1 12.2,0.9 18.2,0.9 C30.5,0.9 34.9,7.8 34.9,14.3 L34.9,34 C34.9,36.9 35,39 35.2,40.9 L35.3,41.6 L27.5,41.6 L27.5,41 C27.4,39.6 27.3,38.2 27.3,36.8 C24,40.8 19.8,42.6 14.1,42.6 Z M21.9,17.8 C12.5,17.8 1.4,20 1.4,30.5 C1.4,38 7.8,41.4 14.1,41.4 C20.1,41.4 24.1,39.4 27,34.9 L27.2,34.6 L28.2,34.6 L28.4,35.2 C28.4,36.9 28.5,38.7 28.6,40.4 L33.8,40.4 C33.6,38.7 33.6,36.7 33.6,34.1 L33.6,14.5 C33.6,8.6 29.6,2.3 18.2,2.3 C12.8,2.3 7.5,4.2 3.9,7.4 L7.4,11.1 L7.5,11 C10,9.1 12.9,6.9 18.3,6.9 C25,6.9 28.1,11.4 28.1,15.6 L28.1,17.8 L21.9,17.8 Z M16.3,36.8 C10.6,36.8 7.4,34.4 7.4,29.9 C7.4,26.2 10.2,21.9 23.4,21.9 L27.9,21.9 L27.9,25 C27.9,30.4 24.9,36.8 16.3,36.8 Z M23.4,23.2 C16.7,23.2 8.7,24.4 8.7,30 C8.7,33.7 11.3,35.6 16.4,35.6 C24,35.6 26.7,30.2 26.7,25 L26.7,23.2 L23.4,23.2 Z"></path>
                </g>
                <g transform="translate(287.000000, 10.000000)" id="Shape">
                    <path d="M27.2,17.9 L16.7,17.9 L16.7,35.3 C16.7,39.6 16.7,44.1 22.2,44.1 C23.9,44.1 25.9,43.9 27.4,43 L27.4,49.6 C25.7,50.6 22.3,50.9 20.8,50.9 C9.5,50.9 9.4,44 9.4,37.9 L9.4,17.9 L1,17.9 L1,11.6 L9.4,11.6 L9.4,0.8 L16.7,0.8 L16.7,11.6 L27.2,11.6 L27.2,17.9 Z"></path>
                    <path d="M20.9,51.6 C8.8,51.6 8.8,43.7 8.8,37.9 L8.8,18.5 L0.4,18.5 L0.4,11 L8.8,11 L8.8,0.2 L17.3,0.2 L17.3,11 L27.8,11 L27.8,18.6 L17.3,18.6 L17.3,35.4 C17.3,40.5 17.6,43.6 22.2,43.6 C23.7,43.6 25.7,43.4 27.1,42.6 L28.1,42 L28.1,50.2 L27.8,50.4 C25.8,51.4 22.1,51.6 20.9,51.6 Z M1.7,17.3 L10.1,17.3 L10.1,38 C10.1,43.8 10.1,50.4 20.9,50.4 C22.5,50.4 25.3,50.1 26.8,49.3 L26.8,44.1 C25.3,44.7 23.5,44.9 22.2,44.9 C16.1,44.9 16.1,39.6 16.1,35.4 L16.1,17.3 L26.6,17.3 L26.6,12.2 L16.1,12.2 L16.1,1.4 L10.1,1.4 L10.1,12.2 L1.7,12.2 L1.7,17.3 Z"></path>
                </g>
                <g transform="translate(318.000000, 19.000000)" id="Shape">
                    <path d="M3.4,7.3 C7.4,3.5 13.3,1.6 18.6,1.6 C29.9,1.6 34.6,7.8 34.6,14.4 L34.6,34 C34.6,36.7 34.7,38.9 34.9,41 L28.4,41 C28.2,39.1 28.2,37.1 28.2,35.2 L28,35.2 C24.8,40.1 20.4,42 14.6,42 C7.5,42 1.3,38 1.3,30.5 C1.3,20.6 10.8,17.2 22.5,17.2 L27.8,17.2 L27.8,15.6 C27.8,11.6 24.9,7.5 18.7,7.5 C13.1,7.5 10.4,9.9 7.7,11.9 L3.4,7.3 Z M24,22.5 C17.1,22.5 8.7,23.7 8.7,29.9 C8.7,34.3 11.9,36.1 17,36.1 C25.1,36.1 27.9,30.1 27.9,24.9 L27.9,22.5 L24,22.5 Z"></path>
                    <path d="M14.6,42.6 C6.4,42.6 0.7,37.6 0.7,30.5 C0.7,21.5 8.4,16.6 22.5,16.6 L27.2,16.6 L27.2,15.6 C27.2,12 24.5,8.1 18.7,8.1 C13.7,8.1 11.1,10 8.7,11.9 L7.7,12.6 L2.5,7.2 L3,6.8 C6.9,3.1 12.7,0.9 18.7,0.9 C31,0.9 35.4,7.8 35.4,14.3 L35.4,34 C35.4,36.9 35.5,39 35.7,40.9 L35.8,41.6 L28,41.6 L28,41 C27.9,39.6 27.8,38.2 27.8,36.8 C24.6,40.8 20.4,42.6 14.6,42.6 Z M22.5,17.8 C13.1,17.8 2,20 2,30.5 C2,38 8.4,41.4 14.7,41.4 C20.7,41.4 24.7,39.4 27.6,34.9 L27.8,34.6 L28.8,34.6 L29,35.2 C29,36.9 29.1,38.7 29.2,40.4 L34.4,40.4 C34.2,38.7 34.1,36.7 34.1,34.1 L34.1,14.5 C34.1,8.6 30.1,2.3 18.7,2.3 C13.3,2.3 8,4.2 4.3,7.4 L7.8,11.1 L7.9,11 C10.4,9.1 13.3,6.9 18.7,6.9 C25.4,6.9 28.5,11.4 28.5,15.6 L28.5,17.8 L22.5,17.8 Z M16.9,36.8 C11.2,36.8 8,34.4 8,29.9 C8,26.2 10.8,21.9 23.9,21.9 L28.4,21.9 L28.4,25 C28.5,30.4 25.4,36.8 16.9,36.8 Z M24,23.2 C17.3,23.2 9.3,24.4 9.3,30 C9.3,33.7 11.9,35.6 16.9,35.6 C24.5,35.6 27.2,30.2 27.2,25 L27.2,23.2 L24,23.2 Z"></path>
                </g>
            </g>
        </g>
    </g>
</svg>
