<svg xmlns="http://www.w3.org/2000/svg" viewBox="0 0 709.93 190.69"><defs><style>.cls-1{fill:#3d90ce;}.cls-2{fill:#5fa5da;}.cls-3{fill:#307bba;}.cls-4{fill:#7bb8e4;}.cls-5{fill:#2664a4;}.cls-6{fill:#60a6db;}</style></defs><title>Asset 1</title><g id="Layer_2" data-name="Layer 2"><g id="Layer_1-2" data-name="Layer 1"><path class="cls-1" d="M271.95,143H252.56l-20.41-38-11.23,17.44V143h-17V47.63h17v48.8l31-48.76h18L241.69,91.8Z"/><path class="cls-1" d="M323,143H297.46c-9.35,0-17-6.13-17-13.62V61.29c0-7.49,7.65-13.62,17-13.62H323c9.35,0,17,6.13,17,13.62v68.1C340,136.88,332.33,143,323,143Zm0-13.62V61.29H297.46v68.1Z"/><path class="cls-1" d="M416.53,143h-15L374,80.63V143H357V47.63h18.37l24.15,56.11V47.63h17Z"/><path class="cls-1" d="M488.81,61.3H467.55V143h-17V61.3H429.28V47.63h59.53Z"/><path class="cls-1" d="M552.6,143h-51V47.63h51V61.25h-34V85.76h25.51V99.43H518.58v30h34Z"/><path class="cls-1" d="M626.93,143h-15L584.4,80.63V143h-17V47.63h18.37l24.15,56.11V47.63h17Z"/><path class="cls-1" d="M709.93,143h-18l-3.4-13.62h-29.6L655.53,143h-18L663,47.63h21.4ZM685.1,115.77,674,71.38l-11.74,44.4Z"/><polygon class="cls-2" points="27 63.56 27 31.78 0 47.67 27 63.56"/><polygon class="cls-1" points="27 63.56 27 31.78 54.01 47.67 27 63.56"/><polygon class="cls-1" points="0 79.45 0 47.67 27 63.56 0 79.45"/><polygon class="cls-3" points="27 95.34 27 63.56 0 79.45 27 95.34"/><polygon class="cls-1" points="0 111.24 0 79.45 27 95.34 0 111.24"/><polygon class="cls-3" points="27 127.13 27 95.34 0 111.24 27 127.13"/><polygon class="cls-1" points="0 143.02 0 111.24 27 127.13 0 143.02"/><polygon class="cls-4" points="27 158.91 27 127.13 0 143.02 27 158.91"/><polygon class="cls-2" points="54.01 47.67 54.01 15.89 27 31.78 54.01 47.67"/><polygon class="cls-1" points="54.01 47.67 54.01 15.89 81.01 31.78 54.01 47.67"/><polygon class="cls-2" points="81.01 31.78 81.01 0 54.01 15.89 81.01 31.78"/><polygon class="cls-1" points="81.01 31.78 81.01 0 108.02 15.89 81.01 31.78"/><polygon class="cls-1" points="54.01 79.45 54.01 47.67 81.01 63.56 54.01 79.45"/><polygon class="cls-3" points="81.01 63.56 81.01 31.78 54.01 47.67 81.01 63.56"/><polygon class="cls-5" points="81.01 63.56 81.01 31.78 108.02 47.67 81.01 63.56"/><polygon class="cls-3" points="108.02 47.67 108.02 15.89 81.01 31.78 108.02 47.67"/><polygon class="cls-1" points="108.02 47.67 108.02 15.89 135.02 31.78 108.02 47.67"/><polygon class="cls-3" points="81.01 95.34 81.01 63.56 54.01 79.45 81.01 95.34"/><polygon class="cls-5" points="81.01 95.34 81.01 63.56 108.02 79.45 81.01 95.34"/><polygon class="cls-3" points="108.02 79.45 108.02 47.67 81.01 63.56 108.02 79.45"/><polygon class="cls-1" points="135.02 63.56 135.02 31.78 162.03 47.67 135.02 63.56"/><polygon class="cls-1" points="54.01 111.24 54.01 79.45 81.01 95.34 54.01 111.24"/><polygon class="cls-6" points="81.01 158.91 81.01 127.13 54.01 143.02 81.01 158.91"/><polygon class="cls-1" points="54.01 174.8 54.01 143.02 81.01 158.91 54.01 174.8"/><polygon class="cls-4" points="81.01 190.69 81.01 158.91 54.01 174.8 81.01 190.69"/><polygon class="cls-2" points="81.01 190.69 81.01 158.91 108.02 174.8 81.01 190.69"/><polygon class="cls-3" points="108.02 174.8 108.02 143.02 81.01 158.91 108.02 174.8"/><polygon class="cls-1" points="81.01 158.91 81.01 127.13 108.02 143.02 81.01 158.91"/><polygon class="cls-1" points="135.02 95.34 135.02 63.56 162.03 79.45 135.02 95.34"/><polygon class="cls-3" points="162.03 79.45 162.03 47.67 135.02 63.56 162.03 79.45"/><polygon class="cls-1" points="135.02 127.13 135.02 95.34 162.03 111.24 135.02 127.13"/><polygon class="cls-3" points="162.03 111.24 162.03 79.45 135.02 95.34 162.03 111.24"/><polygon class="cls-2" points="135.02 158.91 135.02 127.13 162.03 143.02 135.02 158.91"/><polygon class="cls-3" points="162.03 143.02 162.03 111.24 135.02 127.13 162.03 143.02"/><polygon class="cls-2" points="135.02 127.13 135.02 95.34 108.02 111.24 135.02 127.13"/></g></g></svg>